<mxfile host="Electron" modified="2024-01-23T01:09:47.628Z" agent="Mozilla/5.0 (Macintosh; Intel Mac OS X 10_15_7) AppleWebKit/537.36 (KHTML, like Gecko) draw.io/22.1.21 Chrome/120.0.6099.109 Electron/28.1.0 Safari/537.36" etag="jUOkppdluTQvv4ZAClIY" version="22.1.21" type="device">
  <diagram id="prtHgNgQTEPvFCAcTncT" name="Page-1">
    <mxGraphModel dx="1510" dy="804" grid="0" gridSize="10" guides="1" tooltips="1" connect="1" arrows="1" fold="1" page="1" pageScale="1" pageWidth="827" pageHeight="1169" math="0" shadow="0">
      <root>
        <mxCell id="0" />
        <mxCell id="1" parent="0" />
        <mxCell id="dNxyNK7c78bLwvsdeMH5-11" value="Organizational Units" style="swimlane;html=1;startSize=20;horizontal=1;containerType=tree;glass=0;" parent="1" vertex="1">
          <mxGeometry x="40" y="40" width="720" height="360" as="geometry" />
        </mxCell>
        <UserObject label="Management&amp;nbsp; Account" name="Tessa Miller" position="CFO" location="Office 1" email="me@example.com" placeholders="1" link="https://www.draw.io" id="dNxyNK7c78bLwvsdeMH5-12">
          <mxCell style="label;image=https://cdn3.iconfinder.com/data/icons/user-avatars-1/512/users-3-128.png;whiteSpace=wrap;html=1;rounded=0;glass=0;treeMoving=1;treeFolding=1;" parent="dNxyNK7c78bLwvsdeMH5-11" vertex="1">
            <mxGeometry x="250" y="50" width="200" height="70" as="geometry" />
          </mxCell>
        </UserObject>
        <mxCell id="dNxyNK7c78bLwvsdeMH5-13" value="" style="endArrow=blockThin;endFill=1;fontSize=11;edgeStyle=elbowEdgeStyle;elbow=vertical;rounded=0;" parent="dNxyNK7c78bLwvsdeMH5-11" source="dNxyNK7c78bLwvsdeMH5-12" target="dNxyNK7c78bLwvsdeMH5-14" edge="1">
          <mxGeometry relative="1" as="geometry" />
        </mxCell>
        <mxCell id="2Vyf62GvJhMEvGThd8YD-5" style="edgeStyle=orthogonalEdgeStyle;rounded=0;orthogonalLoop=1;jettySize=auto;html=1;entryX=0.5;entryY=0;entryDx=0;entryDy=0;endArrow=none;endFill=0;" edge="1" parent="dNxyNK7c78bLwvsdeMH5-11" source="dNxyNK7c78bLwvsdeMH5-14" target="2Vyf62GvJhMEvGThd8YD-3">
          <mxGeometry relative="1" as="geometry" />
        </mxCell>
        <mxCell id="2Vyf62GvJhMEvGThd8YD-6" style="edgeStyle=orthogonalEdgeStyle;rounded=0;orthogonalLoop=1;jettySize=auto;html=1;entryX=0.5;entryY=0;entryDx=0;entryDy=0;endArrow=none;endFill=0;" edge="1" parent="dNxyNK7c78bLwvsdeMH5-11" source="dNxyNK7c78bLwvsdeMH5-14" target="2Vyf62GvJhMEvGThd8YD-4">
          <mxGeometry relative="1" as="geometry" />
        </mxCell>
        <UserObject label="Sales OU" name="Edward Morrison" position="Brand Manager" location="Office 2" email="me@example.com" placeholders="1" link="https://www.draw.io" id="dNxyNK7c78bLwvsdeMH5-14">
          <mxCell style="label;image=https://cdn3.iconfinder.com/data/icons/user-avatars-1/512/users-10-3-128.png;whiteSpace=wrap;html=1;rounded=0;glass=0;treeFolding=1;treeMoving=1;fillColor=#647687;fontColor=#ffffff;strokeColor=#314354;" parent="dNxyNK7c78bLwvsdeMH5-11" vertex="1">
            <mxGeometry x="40" y="180" width="180" height="80" as="geometry" />
          </mxCell>
        </UserObject>
        <mxCell id="dNxyNK7c78bLwvsdeMH5-15" value="" style="endArrow=blockThin;endFill=1;fontSize=11;edgeStyle=elbowEdgeStyle;elbow=vertical;rounded=0;" parent="dNxyNK7c78bLwvsdeMH5-11" source="dNxyNK7c78bLwvsdeMH5-12" target="dNxyNK7c78bLwvsdeMH5-16" edge="1">
          <mxGeometry relative="1" as="geometry" />
        </mxCell>
        <mxCell id="2Vyf62GvJhMEvGThd8YD-11" style="edgeStyle=orthogonalEdgeStyle;rounded=0;orthogonalLoop=1;jettySize=auto;html=1;entryX=0.5;entryY=0;entryDx=0;entryDy=0;endArrow=none;endFill=0;" edge="1" parent="dNxyNK7c78bLwvsdeMH5-11" source="dNxyNK7c78bLwvsdeMH5-16" target="2Vyf62GvJhMEvGThd8YD-7">
          <mxGeometry relative="1" as="geometry" />
        </mxCell>
        <mxCell id="2Vyf62GvJhMEvGThd8YD-12" style="edgeStyle=orthogonalEdgeStyle;rounded=0;orthogonalLoop=1;jettySize=auto;html=1;entryX=0.5;entryY=0;entryDx=0;entryDy=0;endArrow=none;endFill=0;" edge="1" parent="dNxyNK7c78bLwvsdeMH5-11" source="dNxyNK7c78bLwvsdeMH5-16" target="2Vyf62GvJhMEvGThd8YD-8">
          <mxGeometry relative="1" as="geometry" />
        </mxCell>
        <UserObject label="Retail OU" name="Evan Valet" position="HR Director" location="Office 4" email="me@example.com" placeholders="1" link="https://www.draw.io" id="dNxyNK7c78bLwvsdeMH5-16">
          <mxCell style="label;image=https://cdn3.iconfinder.com/data/icons/user-avatars-1/512/users-9-2-128.png;whiteSpace=wrap;html=1;rounded=0;glass=0;treeFolding=1;treeMoving=1;fillColor=#a0522d;fontColor=#ffffff;strokeColor=#6D1F00;" parent="dNxyNK7c78bLwvsdeMH5-11" vertex="1">
            <mxGeometry x="260" y="180" width="180" height="80" as="geometry" />
          </mxCell>
        </UserObject>
        <mxCell id="dNxyNK7c78bLwvsdeMH5-17" value="" style="endArrow=blockThin;endFill=1;fontSize=11;edgeStyle=elbowEdgeStyle;elbow=vertical;rounded=0;" parent="dNxyNK7c78bLwvsdeMH5-11" source="dNxyNK7c78bLwvsdeMH5-12" target="dNxyNK7c78bLwvsdeMH5-18" edge="1">
          <mxGeometry relative="1" as="geometry" />
        </mxCell>
        <mxCell id="2Vyf62GvJhMEvGThd8YD-15" style="edgeStyle=orthogonalEdgeStyle;rounded=0;orthogonalLoop=1;jettySize=auto;html=1;entryX=0.5;entryY=0;entryDx=0;entryDy=0;endArrow=none;endFill=0;" edge="1" parent="dNxyNK7c78bLwvsdeMH5-11" source="dNxyNK7c78bLwvsdeMH5-18" target="2Vyf62GvJhMEvGThd8YD-9">
          <mxGeometry relative="1" as="geometry" />
        </mxCell>
        <mxCell id="2Vyf62GvJhMEvGThd8YD-16" style="edgeStyle=orthogonalEdgeStyle;rounded=0;orthogonalLoop=1;jettySize=auto;html=1;entryX=0.5;entryY=0;entryDx=0;entryDy=0;endArrow=none;endFill=0;" edge="1" parent="dNxyNK7c78bLwvsdeMH5-11" source="dNxyNK7c78bLwvsdeMH5-18" target="2Vyf62GvJhMEvGThd8YD-10">
          <mxGeometry relative="1" as="geometry" />
        </mxCell>
        <UserObject label="Finance OU" name="Alison Donovan" position="System Admin" location="Office 3" email="me@example.com" placeholders="1" link="https://www.draw.io" id="dNxyNK7c78bLwvsdeMH5-18">
          <mxCell style="label;image=https://cdn3.iconfinder.com/data/icons/user-avatars-1/512/users-2-128.png;whiteSpace=wrap;html=1;rounded=0;glass=0;fillColor=#6d8764;fontColor=#ffffff;strokeColor=#3A5431;" parent="dNxyNK7c78bLwvsdeMH5-11" vertex="1">
            <mxGeometry x="490" y="180" width="180" height="80" as="geometry" />
          </mxCell>
        </UserObject>
        <mxCell id="2Vyf62GvJhMEvGThd8YD-3" value="Sales&amp;nbsp;&lt;br&gt;Account 1" style="rounded=0;whiteSpace=wrap;html=1;" vertex="1" parent="dNxyNK7c78bLwvsdeMH5-11">
          <mxGeometry x="40" y="290" width="80" height="40" as="geometry" />
        </mxCell>
        <mxCell id="2Vyf62GvJhMEvGThd8YD-4" value="Sales&amp;nbsp;&lt;br&gt;Account 2" style="rounded=0;whiteSpace=wrap;html=1;" vertex="1" parent="dNxyNK7c78bLwvsdeMH5-11">
          <mxGeometry x="140" y="290" width="80" height="40" as="geometry" />
        </mxCell>
        <mxCell id="2Vyf62GvJhMEvGThd8YD-7" value="Retail&lt;br&gt;Account 1" style="rounded=0;whiteSpace=wrap;html=1;" vertex="1" parent="dNxyNK7c78bLwvsdeMH5-11">
          <mxGeometry x="260" y="290" width="80" height="40" as="geometry" />
        </mxCell>
        <mxCell id="2Vyf62GvJhMEvGThd8YD-8" value="Retail&amp;nbsp;&lt;br&gt;Account 2" style="rounded=0;whiteSpace=wrap;html=1;" vertex="1" parent="dNxyNK7c78bLwvsdeMH5-11">
          <mxGeometry x="360" y="290" width="80" height="40" as="geometry" />
        </mxCell>
        <mxCell id="2Vyf62GvJhMEvGThd8YD-9" value="Finance&lt;br&gt;Account 1" style="rounded=0;whiteSpace=wrap;html=1;" vertex="1" parent="dNxyNK7c78bLwvsdeMH5-11">
          <mxGeometry x="490" y="290" width="80" height="40" as="geometry" />
        </mxCell>
        <mxCell id="2Vyf62GvJhMEvGThd8YD-10" value="Finance&amp;nbsp;&lt;br&gt;Account 2" style="rounded=0;whiteSpace=wrap;html=1;" vertex="1" parent="dNxyNK7c78bLwvsdeMH5-11">
          <mxGeometry x="590" y="290" width="80" height="40" as="geometry" />
        </mxCell>
        <mxCell id="2Vyf62GvJhMEvGThd8YD-19" value="" style="rounded=1;arcSize=1;dashed=1;fillColor=none;gradientColor=none;dashPattern=1 1;strokeWidth=2;" vertex="1" parent="1">
          <mxGeometry x="160" y="460" width="652" height="460" as="geometry" />
        </mxCell>
        <mxCell id="2Vyf62GvJhMEvGThd8YD-20" value="Root OU" style="text;html=1;strokeColor=none;fillColor=none;align=center;verticalAlign=middle;whiteSpace=wrap;rounded=0;fontFamily=Verdana;fontSize=15;" vertex="1" parent="1">
          <mxGeometry x="452" y="462" width="80" height="30" as="geometry" />
        </mxCell>
        <mxCell id="2Vyf62GvJhMEvGThd8YD-23" value="Management Account" style="text;html=1;strokeColor=none;fillColor=none;align=center;verticalAlign=middle;whiteSpace=wrap;rounded=0;fontFamily=Verdana;fontSize=13;" vertex="1" parent="1">
          <mxGeometry x="252" y="540" width="150" height="20" as="geometry" />
        </mxCell>
        <mxCell id="2Vyf62GvJhMEvGThd8YD-17" value="" style="sketch=0;points=[[0,0,0],[0.25,0,0],[0.5,0,0],[0.75,0,0],[1,0,0],[0,1,0],[0.25,1,0],[0.5,1,0],[0.75,1,0],[1,1,0],[0,0.25,0],[0,0.5,0],[0,0.75,0],[1,0.25,0],[1,0.5,0],[1,0.75,0]];points=[[0,0,0],[0.25,0,0],[0.5,0,0],[0.75,0,0],[1,0,0],[0,1,0],[0.25,1,0],[0.5,1,0],[0.75,1,0],[1,1,0],[0,0.25,0],[0,0.5,0],[0,0.75,0],[1,0.25,0],[1,0.5,0],[1,0.75,0]];outlineConnect=0;fontColor=#232F3E;fillColor=#E7157B;strokeColor=#ffffff;dashed=0;verticalLabelPosition=bottom;verticalAlign=top;align=center;html=1;fontSize=12;fontStyle=0;aspect=fixed;shape=mxgraph.aws4.resourceIcon;resIcon=mxgraph.aws4.organizations;" vertex="1" parent="1">
          <mxGeometry x="162" y="462" width="40" height="40" as="geometry" />
        </mxCell>
        <mxCell id="2Vyf62GvJhMEvGThd8YD-24" value="" style="rounded=1;arcSize=0;dashed=1;fillColor=none;gradientColor=none;dashPattern=1 1;strokeWidth=2;" vertex="1" parent="1">
          <mxGeometry x="252" y="600" width="480" height="280" as="geometry" />
        </mxCell>
        <mxCell id="2Vyf62GvJhMEvGThd8YD-25" value="" style="sketch=0;outlineConnect=0;fontColor=#232F3E;gradientColor=none;fillColor=#E7157B;strokeColor=none;dashed=0;verticalLabelPosition=bottom;verticalAlign=top;align=center;html=1;fontSize=12;fontStyle=0;aspect=fixed;pointerEvents=1;shape=mxgraph.aws4.organizations_account2;" vertex="1" parent="1">
          <mxGeometry x="254" y="603" width="40" height="40" as="geometry" />
        </mxCell>
        <mxCell id="2Vyf62GvJhMEvGThd8YD-26" value="OU (Prod)" style="text;html=1;strokeColor=none;fillColor=none;align=center;verticalAlign=middle;whiteSpace=wrap;rounded=0;fontFamily=Verdana;fontSize=15;" vertex="1" parent="1">
          <mxGeometry x="446" y="610" width="80" height="20" as="geometry" />
        </mxCell>
        <mxCell id="2Vyf62GvJhMEvGThd8YD-27" value="" style="sketch=0;outlineConnect=0;fontColor=#232F3E;gradientColor=none;fillColor=#E7157B;strokeColor=none;dashed=0;verticalLabelPosition=bottom;verticalAlign=top;align=center;html=1;fontSize=12;fontStyle=0;aspect=fixed;pointerEvents=1;shape=mxgraph.aws4.organizations_management_account2;" vertex="1" parent="1">
          <mxGeometry x="212" y="520" width="40" height="40" as="geometry" />
        </mxCell>
        <mxCell id="2Vyf62GvJhMEvGThd8YD-28" value="" style="sketch=0;outlineConnect=0;fontColor=#232F3E;gradientColor=none;fillColor=#E7157B;strokeColor=none;dashed=0;verticalLabelPosition=bottom;verticalAlign=top;align=center;html=1;fontSize=12;fontStyle=0;aspect=fixed;pointerEvents=1;shape=mxgraph.aws4.organizations_account2;" vertex="1" parent="1">
          <mxGeometry x="298" y="683" width="30" height="30" as="geometry" />
        </mxCell>
        <mxCell id="2Vyf62GvJhMEvGThd8YD-29" value="Account A" style="text;html=1;strokeColor=none;fillColor=none;align=center;verticalAlign=middle;whiteSpace=wrap;rounded=0;fontFamily=Verdana;fontSize=13;" vertex="1" parent="1">
          <mxGeometry x="328" y="693" width="74" height="17" as="geometry" />
        </mxCell>
        <mxCell id="2Vyf62GvJhMEvGThd8YD-30" value="" style="rounded=1;arcSize=0;dashed=1;fillColor=none;gradientColor=none;dashPattern=1 1;strokeWidth=2;" vertex="1" parent="1">
          <mxGeometry x="276" y="740" width="190" height="120" as="geometry" />
        </mxCell>
        <mxCell id="2Vyf62GvJhMEvGThd8YD-31" value="" style="sketch=0;outlineConnect=0;fontColor=#232F3E;gradientColor=none;fillColor=#E7157B;strokeColor=none;dashed=0;verticalLabelPosition=bottom;verticalAlign=top;align=center;html=1;fontSize=12;fontStyle=0;aspect=fixed;pointerEvents=1;shape=mxgraph.aws4.organizations_account2;" vertex="1" parent="1">
          <mxGeometry x="279" y="744" width="30" height="30" as="geometry" />
        </mxCell>
        <mxCell id="2Vyf62GvJhMEvGThd8YD-32" value="OU (HR)" style="text;html=1;strokeColor=none;fillColor=none;align=center;verticalAlign=middle;whiteSpace=wrap;rounded=0;fontFamily=Verdana;fontSize=15;" vertex="1" parent="1">
          <mxGeometry x="332" y="743" width="70" height="20" as="geometry" />
        </mxCell>
        <mxCell id="2Vyf62GvJhMEvGThd8YD-33" value="" style="sketch=0;outlineConnect=0;fontColor=#232F3E;gradientColor=none;fillColor=#E7157B;strokeColor=none;dashed=0;verticalLabelPosition=bottom;verticalAlign=top;align=center;html=1;fontSize=12;fontStyle=0;aspect=fixed;pointerEvents=1;shape=mxgraph.aws4.organizations_account2;" vertex="1" parent="1">
          <mxGeometry x="298" y="800" width="30" height="30" as="geometry" />
        </mxCell>
        <mxCell id="2Vyf62GvJhMEvGThd8YD-34" value="Account B" style="text;html=1;strokeColor=none;fillColor=none;align=center;verticalAlign=middle;whiteSpace=wrap;rounded=0;fontFamily=Verdana;fontSize=13;" vertex="1" parent="1">
          <mxGeometry x="328" y="810" width="74" height="17" as="geometry" />
        </mxCell>
        <mxCell id="2Vyf62GvJhMEvGThd8YD-35" value="" style="rounded=1;arcSize=0;dashed=1;fillColor=none;gradientColor=none;dashPattern=1 1;strokeWidth=2;" vertex="1" parent="1">
          <mxGeometry x="512" y="740" width="190" height="120" as="geometry" />
        </mxCell>
        <mxCell id="2Vyf62GvJhMEvGThd8YD-36" value="" style="sketch=0;outlineConnect=0;fontColor=#232F3E;gradientColor=none;fillColor=#E7157B;strokeColor=none;dashed=0;verticalLabelPosition=bottom;verticalAlign=top;align=center;html=1;fontSize=12;fontStyle=0;aspect=fixed;pointerEvents=1;shape=mxgraph.aws4.organizations_account2;" vertex="1" parent="1">
          <mxGeometry x="515" y="744" width="30" height="30" as="geometry" />
        </mxCell>
        <mxCell id="2Vyf62GvJhMEvGThd8YD-37" value="OU (Finance)" style="text;html=1;strokeColor=none;fillColor=none;align=center;verticalAlign=middle;whiteSpace=wrap;rounded=0;fontFamily=Verdana;fontSize=15;" vertex="1" parent="1">
          <mxGeometry x="568" y="743" width="104" height="20" as="geometry" />
        </mxCell>
        <mxCell id="2Vyf62GvJhMEvGThd8YD-38" value="" style="sketch=0;outlineConnect=0;fontColor=#232F3E;gradientColor=none;fillColor=#E7157B;strokeColor=none;dashed=0;verticalLabelPosition=bottom;verticalAlign=top;align=center;html=1;fontSize=12;fontStyle=0;aspect=fixed;pointerEvents=1;shape=mxgraph.aws4.organizations_account2;" vertex="1" parent="1">
          <mxGeometry x="534" y="800" width="30" height="30" as="geometry" />
        </mxCell>
        <mxCell id="2Vyf62GvJhMEvGThd8YD-39" value="Account C" style="text;html=1;strokeColor=none;fillColor=none;align=center;verticalAlign=middle;whiteSpace=wrap;rounded=0;fontFamily=Verdana;fontSize=13;" vertex="1" parent="1">
          <mxGeometry x="564" y="810" width="74" height="17" as="geometry" />
        </mxCell>
        <mxCell id="2Vyf62GvJhMEvGThd8YD-46" style="edgeStyle=orthogonalEdgeStyle;rounded=0;orthogonalLoop=1;jettySize=auto;html=1;endArrow=blockThin;endFill=1;" edge="1" parent="1" source="2Vyf62GvJhMEvGThd8YD-45" target="2Vyf62GvJhMEvGThd8YD-27">
          <mxGeometry relative="1" as="geometry">
            <Array as="points">
              <mxPoint x="190" y="540" />
              <mxPoint x="190" y="540" />
            </Array>
          </mxGeometry>
        </mxCell>
        <mxCell id="2Vyf62GvJhMEvGThd8YD-45" value="FullAWSAccess SCP" style="text;html=1;strokeColor=none;fillColor=none;align=center;verticalAlign=middle;whiteSpace=wrap;rounded=0;fontFamily=Verdana;fontSize=13;fontStyle=2" vertex="1" parent="1">
          <mxGeometry x="20" y="530" width="136" height="20" as="geometry" />
        </mxCell>
        <mxCell id="2Vyf62GvJhMEvGThd8YD-47" style="edgeStyle=orthogonalEdgeStyle;rounded=0;orthogonalLoop=1;jettySize=auto;html=1;endArrow=blockThin;endFill=1;" edge="1" parent="1" source="2Vyf62GvJhMEvGThd8YD-48" target="2Vyf62GvJhMEvGThd8YD-25">
          <mxGeometry relative="1" as="geometry">
            <mxPoint x="212" y="623" as="targetPoint" />
            <Array as="points" />
          </mxGeometry>
        </mxCell>
        <mxCell id="2Vyf62GvJhMEvGThd8YD-48" value="&lt;font style=&quot;font-size: 12px;&quot;&gt;DenyAccessAthena SCP&lt;/font&gt;" style="text;html=1;strokeColor=none;fillColor=none;align=center;verticalAlign=middle;whiteSpace=wrap;rounded=0;fontFamily=Verdana;fontSize=13;fontStyle=2" vertex="1" parent="1">
          <mxGeometry x="10" y="613" width="144" height="20" as="geometry" />
        </mxCell>
        <mxCell id="2Vyf62GvJhMEvGThd8YD-49" value="&lt;ul&gt;&lt;li&gt;&amp;nbsp;Management Account&lt;/li&gt;&lt;ul&gt;&lt;li&gt;Can do Anything&lt;/li&gt;&lt;li&gt;&amp;nbsp;No SCP can be applied (DenyAthena doesn&#39;t work)&lt;/li&gt;&lt;/ul&gt;&lt;/ul&gt;&lt;ul&gt;&lt;li&gt;Account A&lt;/li&gt;&lt;ul&gt;&lt;li&gt;Can do anything&lt;/li&gt;&lt;li&gt;&lt;b&gt;EXCEPT &lt;/b&gt;access Redshift (&lt;i&gt;explicit Deny from OU)&lt;/i&gt;&lt;/li&gt;&lt;/ul&gt;&lt;/ul&gt;&lt;ul&gt;&lt;li&gt;Account B&lt;/li&gt;&lt;ul&gt;&lt;li&gt;Can do anything&lt;/li&gt;&lt;li&gt;&lt;b&gt;EXCEPT&amp;nbsp;&lt;/b&gt;access Redshift (&lt;i&gt;explicit Deny from Prod OU)&lt;/i&gt;&lt;/li&gt;&lt;li&gt;&lt;b&gt;EXCEPT&lt;/b&gt; access Lambda (explicit Deny from OU (HR))&lt;/li&gt;&lt;/ul&gt;&lt;/ul&gt;&lt;ul&gt;&lt;li&gt;Account C&lt;/li&gt;&lt;ul&gt;&lt;li&gt;Can do anything&lt;/li&gt;&lt;li&gt;&lt;b&gt;EXCEPT&amp;nbsp;&lt;/b&gt;access Redshift (&lt;i&gt;explicit Deny from Prod OU)&lt;/i&gt;&lt;/li&gt;&lt;/ul&gt;&lt;/ul&gt;" style="text;html=1;strokeColor=none;fillColor=none;align=left;verticalAlign=middle;whiteSpace=wrap;rounded=0;fontFamily=Verdana;fontSize=15;" vertex="1" parent="1">
          <mxGeometry x="160" y="920" width="640" height="300" as="geometry" />
        </mxCell>
        <mxCell id="2Vyf62GvJhMEvGThd8YD-50" style="edgeStyle=orthogonalEdgeStyle;rounded=0;orthogonalLoop=1;jettySize=auto;html=1;endArrow=blockThin;endFill=1;" edge="1" parent="1" target="2Vyf62GvJhMEvGThd8YD-28">
          <mxGeometry relative="1" as="geometry">
            <mxPoint x="287" y="698" as="targetPoint" />
            <Array as="points" />
            <mxPoint x="141" y="698" as="sourcePoint" />
          </mxGeometry>
        </mxCell>
        <mxCell id="2Vyf62GvJhMEvGThd8YD-51" value="&lt;font style=&quot;font-size: 12px;&quot;&gt;DenyRedshift SCP&lt;/font&gt;" style="text;html=1;strokeColor=none;fillColor=none;align=center;verticalAlign=middle;whiteSpace=wrap;rounded=0;fontFamily=Verdana;fontSize=13;fontStyle=2" vertex="1" parent="1">
          <mxGeometry x="16" y="688" width="136" height="20" as="geometry" />
        </mxCell>
        <mxCell id="2Vyf62GvJhMEvGThd8YD-54" style="edgeStyle=orthogonalEdgeStyle;rounded=0;orthogonalLoop=1;jettySize=auto;html=1;endArrow=blockThin;endFill=1;" edge="1" parent="1" target="2Vyf62GvJhMEvGThd8YD-31">
          <mxGeometry relative="1" as="geometry">
            <mxPoint x="147" y="759" as="sourcePoint" />
            <mxPoint x="270" y="759" as="targetPoint" />
          </mxGeometry>
        </mxCell>
        <mxCell id="2Vyf62GvJhMEvGThd8YD-52" value="&lt;font style=&quot;font-size: 12px;&quot;&gt;AuthorizeRedshift SCP&lt;/font&gt;" style="text;html=1;strokeColor=none;fillColor=none;align=center;verticalAlign=middle;whiteSpace=wrap;rounded=0;fontFamily=Verdana;fontSize=13;fontStyle=2" vertex="1" parent="1">
          <mxGeometry x="2" y="749" width="154" height="20" as="geometry" />
        </mxCell>
        <mxCell id="2Vyf62GvJhMEvGThd8YD-57" style="edgeStyle=orthogonalEdgeStyle;rounded=0;orthogonalLoop=1;jettySize=auto;html=1;endArrow=blockThin;endFill=1;" edge="1" parent="1">
          <mxGeometry relative="1" as="geometry">
            <mxPoint x="133" y="817" as="sourcePoint" />
            <mxPoint x="296" y="817" as="targetPoint" />
          </mxGeometry>
        </mxCell>
        <mxCell id="2Vyf62GvJhMEvGThd8YD-56" value="&lt;font style=&quot;font-size: 12px;&quot;&gt;DenyAWSLambda&lt;/font&gt;" style="text;html=1;strokeColor=none;fillColor=none;align=center;verticalAlign=middle;whiteSpace=wrap;rounded=0;fontFamily=Verdana;fontSize=13;fontStyle=2" vertex="1" parent="1">
          <mxGeometry x="20" y="805" width="118" height="20" as="geometry" />
        </mxCell>
      </root>
    </mxGraphModel>
  </diagram>
</mxfile>
